<mxfile host="Electron" modified="2023-05-13T19:42:18.195Z" agent="Mozilla/5.0 (Windows NT 10.0; Win64; x64) AppleWebKit/537.36 (KHTML, like Gecko) draw.io/21.2.8 Chrome/112.0.5615.165 Electron/24.2.0 Safari/537.36" etag="FMD8JBH6fgUNuitHrua9" version="21.2.8" type="device">
  <diagram name="PÃ¡gina-1" id="eY0bKgxbDlH5BIfASb4S">
    <mxGraphModel dx="3695" dy="1688" grid="1" gridSize="10" guides="1" tooltips="1" connect="1" arrows="1" fold="1" page="1" pageScale="1" pageWidth="827" pageHeight="1169" math="0" shadow="0">
      <root>
        <mxCell id="0" />
        <mxCell id="1" parent="0" />
        <mxCell id="yKTKf-4VHtg-_HPWuIa7-1" value="Pokemon" style="swimlane;fontStyle=1;align=center;verticalAlign=top;childLayout=stackLayout;horizontal=1;startSize=26;horizontalStack=0;resizeParent=1;resizeParentMax=0;resizeLast=0;collapsible=1;marginBottom=0;" parent="1" vertex="1">
          <mxGeometry x="264" y="82" width="300" height="490" as="geometry" />
        </mxCell>
        <mxCell id="yKTKf-4VHtg-_HPWuIa7-2" value="+EXPERIENCIA_NIVEL: int&#xa;-idPokemon: int&#xa;-numPokedex: int&#xa;-nombre: String&#xa;-mote: String&#xa;-vitalidad: int&#xa;-vitalidadActual: int&#xa;-ataque: int&#xa;-defensa: int&#xa;-ataqueEspecial: int&#xa;-defensaEspecial: int&#xa;-velocidad: int&#xa;-estamina: int&#xa;-estaminaActual: int&#xa;-nivel: int&#xa;-nivelEvolucion: int&#xa;-experienciaObtenida: int&#xa;-movimientos: LinkedList&lt;Movimiento&gt;&#xa;-fertilidad: int&#xa;-sexo: char&#xa;-tipoPrimario: Tipo&#xa;-tipoSecundario: Tipo&#xa;-estado: String&#xa;-objeto: Objeto&#xa;-imgFrontal: String&#xa;-imgTrasera: String" style="text;strokeColor=none;fillColor=none;align=left;verticalAlign=top;spacingLeft=4;spacingRight=4;overflow=hidden;rotatable=0;points=[[0,0.5],[1,0.5]];portConstraint=eastwest;" parent="yKTKf-4VHtg-_HPWuIa7-1" vertex="1">
          <mxGeometry y="26" width="300" height="374" as="geometry" />
        </mxCell>
        <mxCell id="yKTKf-4VHtg-_HPWuIa7-3" value="" style="line;strokeWidth=1;fillColor=none;align=left;verticalAlign=middle;spacingTop=-1;spacingLeft=3;spacingRight=3;rotatable=0;labelPosition=right;points=[];portConstraint=eastwest;strokeColor=inherit;" parent="yKTKf-4VHtg-_HPWuIa7-1" vertex="1">
          <mxGeometry y="400" width="300" height="8" as="geometry" />
        </mxCell>
        <mxCell id="yKTKf-4VHtg-_HPWuIa7-4" value="+subirNivel(): boolean&#xa;+evolucionar():boolean&#xa;+descansar(): void&#xa;+aprenderMovimiento(): boolean&#xa;+randomPokemon(LinkedList&lt;Pokemon&gt;): Pokemon" style="text;strokeColor=none;fillColor=none;align=left;verticalAlign=top;spacingLeft=4;spacingRight=4;overflow=hidden;rotatable=0;points=[[0,0.5],[1,0.5]];portConstraint=eastwest;" parent="yKTKf-4VHtg-_HPWuIa7-1" vertex="1">
          <mxGeometry y="408" width="300" height="82" as="geometry" />
        </mxCell>
        <mxCell id="mplZcPmoyifbsvKp7nIG-8" style="rounded=0;orthogonalLoop=1;jettySize=auto;html=1;edgeStyle=orthogonalEdgeStyle;startArrow=diamondThin;startFill=0;endArrow=diamondThin;endFill=0;" parent="1" source="yKTKf-4VHtg-_HPWuIa7-5" target="yKTKf-4VHtg-_HPWuIa7-2" edge="1">
          <mxGeometry relative="1" as="geometry">
            <Array as="points">
              <mxPoint x="224" y="322" />
              <mxPoint x="224" y="322" />
            </Array>
          </mxGeometry>
        </mxCell>
        <mxCell id="yKTKf-4VHtg-_HPWuIa7-5" value="Entrenador" style="swimlane;fontStyle=1;align=center;verticalAlign=top;childLayout=stackLayout;horizontal=1;startSize=26;horizontalStack=0;resizeParent=1;resizeParentMax=0;resizeLast=0;collapsible=1;marginBottom=0;" parent="1" vertex="1">
          <mxGeometry x="-126" y="212" width="260" height="220" as="geometry" />
        </mxCell>
        <mxCell id="yKTKf-4VHtg-_HPWuIa7-6" value="-equipo:ArrayList&lt;Pokemon&gt;&#xa;-caja: ArrayList&lt;Pokemon&gt;&#xa;-nombre: String&#xa;-pokedollar: int&#xa;-mochila:ArrayList&lt;Objeto&gt;&#xa;&#xa;" style="text;strokeColor=none;fillColor=none;align=left;verticalAlign=top;spacingLeft=4;spacingRight=4;overflow=hidden;rotatable=0;points=[[0,0.5],[1,0.5]];portConstraint=eastwest;" parent="yKTKf-4VHtg-_HPWuIa7-5" vertex="1">
          <mxGeometry y="26" width="260" height="84" as="geometry" />
        </mxCell>
        <mxCell id="yKTKf-4VHtg-_HPWuIa7-7" value="" style="line;strokeWidth=1;fillColor=none;align=left;verticalAlign=middle;spacingTop=-1;spacingLeft=3;spacingRight=3;rotatable=0;labelPosition=right;points=[];portConstraint=eastwest;strokeColor=inherit;" parent="yKTKf-4VHtg-_HPWuIa7-5" vertex="1">
          <mxGeometry y="110" width="260" height="8" as="geometry" />
        </mxCell>
        <mxCell id="yKTKf-4VHtg-_HPWuIa7-8" value="+lanzarPokeball(): boolean&#xa;+criar(Pokemon, Pokemon): Pokemon&#xa;+entrenamientoPesado(Pokemon)&#xa;+entrenamientoFurioso(Pokemon)&#xa;+entrenamientoOnirico(Pokemon)&#xa;+entrenamientoFuncional(Pokemon)" style="text;strokeColor=none;fillColor=none;align=left;verticalAlign=top;spacingLeft=4;spacingRight=4;overflow=hidden;rotatable=0;points=[[0,0.5],[1,0.5]];portConstraint=eastwest;" parent="yKTKf-4VHtg-_HPWuIa7-5" vertex="1">
          <mxGeometry y="118" width="260" height="102" as="geometry" />
        </mxCell>
        <mxCell id="mplZcPmoyifbsvKp7nIG-18" style="edgeStyle=orthogonalEdgeStyle;rounded=0;orthogonalLoop=1;jettySize=auto;html=1;startArrow=none;startFill=0;endArrow=block;endFill=0;exitX=0;exitY=0.577;exitDx=0;exitDy=0;exitPerimeter=0;" parent="1" source="S8cTtpgbVCuw56KvLq3J-3" target="yKTKf-4VHtg-_HPWuIa7-2" edge="1">
          <mxGeometry relative="1" as="geometry">
            <Array as="points">
              <mxPoint x="804" y="577" />
              <mxPoint x="654" y="577" />
              <mxPoint x="654" y="242" />
            </Array>
            <mxPoint x="824" y="618" as="sourcePoint" />
          </mxGeometry>
        </mxCell>
        <mxCell id="mplZcPmoyifbsvKp7nIG-19" style="edgeStyle=orthogonalEdgeStyle;rounded=0;orthogonalLoop=1;jettySize=auto;html=1;startArrow=none;startFill=0;endArrow=block;endFill=0;" parent="1" source="yKTKf-4VHtg-_HPWuIa7-17" target="yKTKf-4VHtg-_HPWuIa7-2" edge="1">
          <mxGeometry relative="1" as="geometry">
            <Array as="points">
              <mxPoint x="684" y="342" />
              <mxPoint x="684" y="212" />
            </Array>
          </mxGeometry>
        </mxCell>
        <mxCell id="mplZcPmoyifbsvKp7nIG-10" style="edgeStyle=orthogonalEdgeStyle;rounded=0;orthogonalLoop=1;jettySize=auto;html=1;entryX=0.5;entryY=1;entryDx=0;entryDy=0;entryPerimeter=0;startArrow=none;startFill=0;endArrow=none;endFill=0;" parent="1" source="yKTKf-4VHtg-_HPWuIa7-21" target="yKTKf-4VHtg-_HPWuIa7-8" edge="1">
          <mxGeometry relative="1" as="geometry">
            <Array as="points">
              <mxPoint x="204" y="552" />
              <mxPoint x="54" y="552" />
              <mxPoint x="54" y="432" />
            </Array>
          </mxGeometry>
        </mxCell>
        <mxCell id="mplZcPmoyifbsvKp7nIG-11" style="edgeStyle=orthogonalEdgeStyle;rounded=0;orthogonalLoop=1;jettySize=auto;html=1;entryX=0.544;entryY=0.997;entryDx=0;entryDy=0;entryPerimeter=0;startArrow=none;startFill=0;endArrow=none;endFill=0;" parent="1" source="yKTKf-4VHtg-_HPWuIa7-21" target="yKTKf-4VHtg-_HPWuIa7-4" edge="1">
          <mxGeometry relative="1" as="geometry">
            <Array as="points">
              <mxPoint x="427" y="622" />
              <mxPoint x="427" y="622" />
            </Array>
          </mxGeometry>
        </mxCell>
        <mxCell id="yKTKf-4VHtg-_HPWuIa7-21" value="Combate" style="swimlane;fontStyle=1;align=center;verticalAlign=top;childLayout=stackLayout;horizontal=1;startSize=26;horizontalStack=0;resizeParent=1;resizeParentMax=0;resizeLast=0;collapsible=1;marginBottom=0;" parent="1" vertex="1">
          <mxGeometry x="164" y="637" width="390" height="450" as="geometry" />
        </mxCell>
        <mxCell id="yKTKf-4VHtg-_HPWuIa7-22" value="-entrenador: Entrenador&#xa;-entrenadorRival: Entrenador&#xa;-pokemonEntrenador: Pokemon&#xa;-pokemonEntrenadorRival: Pokemon&#xa;-movimientoEntrenador: Movimiento&#xa;-movimientoEntrenadorRival: Movimiento&#xa;-ganador: Entrenador&#xa;-turno: Turno&#xa;-pokemonKO1: ArrayList&lt;Pokemon&gt;&#xa;-pokemonKO2: ArrayList&lt;Pokemon&gt;" style="text;strokeColor=none;fillColor=none;align=left;verticalAlign=top;spacingLeft=4;spacingRight=4;overflow=hidden;rotatable=0;points=[[0,0.5],[1,0.5]];portConstraint=eastwest;" parent="yKTKf-4VHtg-_HPWuIa7-21" vertex="1">
          <mxGeometry y="26" width="390" height="154" as="geometry" />
        </mxCell>
        <mxCell id="yKTKf-4VHtg-_HPWuIa7-23" value="" style="line;strokeWidth=1;fillColor=none;align=left;verticalAlign=middle;spacingTop=-1;spacingLeft=3;spacingRight=3;rotatable=0;labelPosition=right;points=[];portConstraint=eastwest;strokeColor=inherit;" parent="yKTKf-4VHtg-_HPWuIa7-21" vertex="1">
          <mxGeometry y="180" width="390" height="8" as="geometry" />
        </mxCell>
        <mxCell id="yKTKf-4VHtg-_HPWuIa7-24" value="+elegirMovimientoEntrenador()&#xa;+elegirMovimientoEntrenadorRival()&#xa;+ataquePropio()&#xa;+ataqueRival()&#xa;+comprobarEstamina():boolean&#xa;+comprobarEstaminaRival():boolean&#xa;+comprobarKO():boolean&#xa;+comprobarVelocidad():boolean&#xa;+pokemonPropioKO(): boolean&#xa;+pokemonRivalKO():boolean&#xa;+pokemonRivalCambio()&#xa;+abandonarCombate(): String&#xa;+entregaPokedollars()&#xa;+calcularGananciaPerdida(): int&#xa;+obtenerExperiencia()&#xa;+comprobarGanador():boolean&#xa;+finalTurno()" style="text;strokeColor=none;fillColor=none;align=left;verticalAlign=top;spacingLeft=4;spacingRight=4;overflow=hidden;rotatable=0;points=[[0,0.5],[1,0.5]];portConstraint=eastwest;" parent="yKTKf-4VHtg-_HPWuIa7-21" vertex="1">
          <mxGeometry y="188" width="390" height="262" as="geometry" />
        </mxCell>
        <mxCell id="mplZcPmoyifbsvKp7nIG-13" style="edgeStyle=orthogonalEdgeStyle;rounded=0;orthogonalLoop=1;jettySize=auto;html=1;startArrow=none;startFill=0;endArrow=none;endFill=0;" parent="1" source="yKTKf-4VHtg-_HPWuIa7-26" target="yKTKf-4VHtg-_HPWuIa7-8" edge="1">
          <mxGeometry relative="1" as="geometry">
            <Array as="points">
              <mxPoint x="-86" y="381" />
            </Array>
          </mxGeometry>
        </mxCell>
        <mxCell id="LMPI0gjnYgJHYpbkVV06-44" value="Estado" style="swimlane;fontStyle=3;align=center;verticalAlign=top;childLayout=stackLayout;horizontal=1;startSize=26;horizontalStack=0;resizeParent=1;resizeParentMax=0;resizeLast=0;collapsible=1;marginBottom=0;" parent="1" vertex="1">
          <mxGeometry x="879" y="82" width="250" height="100" as="geometry" />
        </mxCell>
        <mxCell id="LMPI0gjnYgJHYpbkVV06-46" value="" style="line;strokeWidth=1;fillColor=none;align=left;verticalAlign=middle;spacingTop=-1;spacingLeft=3;spacingRight=3;rotatable=0;labelPosition=right;points=[];portConstraint=eastwest;" parent="LMPI0gjnYgJHYpbkVV06-44" vertex="1">
          <mxGeometry y="26" width="250" height="8" as="geometry" />
        </mxCell>
        <mxCell id="LMPI0gjnYgJHYpbkVV06-47" value="+realizarAlteracion(Movimiento, Int):String&#xa;+estadoPostAccion(Pokemon):boolean&#xa;+estadoPreAccion(Pokemon):boolean" style="text;strokeColor=none;fillColor=none;align=left;verticalAlign=top;spacingLeft=4;spacingRight=4;overflow=hidden;rotatable=0;points=[[0,0.5],[1,0.5]];portConstraint=eastwest;" parent="LMPI0gjnYgJHYpbkVV06-44" vertex="1">
          <mxGeometry y="34" width="250" height="66" as="geometry" />
        </mxCell>
        <mxCell id="MwtCyluApLj7gkgK4pBC-12" style="edgeStyle=orthogonalEdgeStyle;rounded=0;orthogonalLoop=1;jettySize=auto;html=1;entryX=0.997;entryY=0.828;entryDx=0;entryDy=0;entryPerimeter=0;endArrow=none;endFill=0;" edge="1" parent="1" source="yKTKf-4VHtg-_HPWuIa7-30" target="yKTKf-4VHtg-_HPWuIa7-24">
          <mxGeometry relative="1" as="geometry" />
        </mxCell>
        <mxCell id="yKTKf-4VHtg-_HPWuIa7-30" value="Turno" style="swimlane;fontStyle=1;align=center;verticalAlign=top;childLayout=stackLayout;horizontal=1;startSize=26;horizontalStack=0;resizeParent=1;resizeParentMax=0;resizeLast=0;collapsible=1;marginBottom=0;" parent="1" vertex="1">
          <mxGeometry x="774" y="997" width="190" height="90" as="geometry" />
        </mxCell>
        <mxCell id="MwtCyluApLj7gkgK4pBC-8" value="-numTurno: int" style="text;strokeColor=none;fillColor=none;align=left;verticalAlign=top;spacingLeft=4;spacingRight=4;overflow=hidden;rotatable=0;points=[[0,0.5],[1,0.5]];portConstraint=eastwest;" vertex="1" parent="yKTKf-4VHtg-_HPWuIa7-30">
          <mxGeometry y="26" width="190" height="24" as="geometry" />
        </mxCell>
        <mxCell id="yKTKf-4VHtg-_HPWuIa7-32" value="" style="line;strokeWidth=1;fillColor=none;align=left;verticalAlign=middle;spacingTop=-1;spacingLeft=3;spacingRight=3;rotatable=0;labelPosition=right;points=[];portConstraint=eastwest;strokeColor=inherit;" parent="yKTKf-4VHtg-_HPWuIa7-30" vertex="1">
          <mxGeometry y="50" width="190" height="8" as="geometry" />
        </mxCell>
        <mxCell id="yKTKf-4VHtg-_HPWuIa7-33" value="+cuentaTurno()" style="text;strokeColor=none;fillColor=none;align=left;verticalAlign=top;spacingLeft=4;spacingRight=4;overflow=hidden;rotatable=0;points=[[0,0.5],[1,0.5]];portConstraint=eastwest;" parent="yKTKf-4VHtg-_HPWuIa7-30" vertex="1">
          <mxGeometry y="58" width="190" height="32" as="geometry" />
        </mxCell>
        <mxCell id="mplZcPmoyifbsvKp7nIG-12" style="edgeStyle=orthogonalEdgeStyle;rounded=0;orthogonalLoop=1;jettySize=auto;html=1;startArrow=none;startFill=0;endArrow=block;endFill=0;" parent="1" source="yKTKf-4VHtg-_HPWuIa7-38" target="yKTKf-4VHtg-_HPWuIa7-8" edge="1">
          <mxGeometry relative="1" as="geometry">
            <Array as="points">
              <mxPoint x="-436" y="362" />
            </Array>
          </mxGeometry>
        </mxCell>
        <mxCell id="yKTKf-4VHtg-_HPWuIa7-26" value="Tienda" style="swimlane;fontStyle=1;align=center;verticalAlign=top;childLayout=stackLayout;horizontal=1;startSize=26;horizontalStack=0;resizeParent=1;resizeParentMax=0;resizeLast=0;collapsible=1;marginBottom=0;" parent="1" vertex="1">
          <mxGeometry x="-206" y="742" width="320" height="110" as="geometry" />
        </mxCell>
        <mxCell id="yKTKf-4VHtg-_HPWuIa7-27" value="-objeto: ArrayList&lt;Objeto&gt;" style="text;strokeColor=none;fillColor=none;align=left;verticalAlign=top;spacingLeft=4;spacingRight=4;overflow=hidden;rotatable=0;points=[[0,0.5],[1,0.5]];portConstraint=eastwest;" parent="yKTKf-4VHtg-_HPWuIa7-26" vertex="1">
          <mxGeometry y="26" width="320" height="26" as="geometry" />
        </mxCell>
        <mxCell id="yKTKf-4VHtg-_HPWuIa7-28" value="" style="line;strokeWidth=1;fillColor=none;align=left;verticalAlign=middle;spacingTop=-1;spacingLeft=3;spacingRight=3;rotatable=0;labelPosition=right;points=[];portConstraint=eastwest;strokeColor=inherit;" parent="yKTKf-4VHtg-_HPWuIa7-26" vertex="1">
          <mxGeometry y="52" width="320" height="8" as="geometry" />
        </mxCell>
        <mxCell id="yKTKf-4VHtg-_HPWuIa7-29" value="+comprar(entrenador:Entrenador, objeto:Objeto): String&#xa;+vender(entrenador:Entrenador, objeto:Objeto): String" style="text;strokeColor=none;fillColor=none;align=left;verticalAlign=top;spacingLeft=4;spacingRight=4;overflow=hidden;rotatable=0;points=[[0,0.5],[1,0.5]];portConstraint=eastwest;" parent="yKTKf-4VHtg-_HPWuIa7-26" vertex="1">
          <mxGeometry y="60" width="320" height="50" as="geometry" />
        </mxCell>
        <mxCell id="yKTKf-4VHtg-_HPWuIa7-38" value="Objetos" style="swimlane;fontStyle=1;align=center;verticalAlign=top;childLayout=stackLayout;horizontal=1;startSize=26;horizontalStack=0;resizeParent=1;resizeParentMax=0;resizeLast=0;collapsible=1;marginBottom=0;" parent="1" vertex="1">
          <mxGeometry x="-576" y="742" width="310" height="178" as="geometry" />
        </mxCell>
        <mxCell id="yKTKf-4VHtg-_HPWuIa7-39" value="-nombre: String&#xa;-aumento: int&#xa;-disminucion: int&#xa;-precioCompra: int&#xa;-precioVenta: int&#xa;-descripcion: String" style="text;strokeColor=none;fillColor=none;align=left;verticalAlign=top;spacingLeft=4;spacingRight=4;overflow=hidden;rotatable=0;points=[[0,0.5],[1,0.5]];portConstraint=eastwest;" parent="yKTKf-4VHtg-_HPWuIa7-38" vertex="1">
          <mxGeometry y="26" width="310" height="94" as="geometry" />
        </mxCell>
        <mxCell id="yKTKf-4VHtg-_HPWuIa7-40" value="" style="line;strokeWidth=1;fillColor=none;align=left;verticalAlign=middle;spacingTop=-1;spacingLeft=3;spacingRight=3;rotatable=0;labelPosition=right;points=[];portConstraint=eastwest;strokeColor=inherit;" parent="yKTKf-4VHtg-_HPWuIa7-38" vertex="1">
          <mxGeometry y="120" width="310" height="8" as="geometry" />
        </mxCell>
        <mxCell id="yKTKf-4VHtg-_HPWuIa7-41" value="+equipar(): void&#xa;+quitar():void" style="text;strokeColor=none;fillColor=none;align=left;verticalAlign=top;spacingLeft=4;spacingRight=4;overflow=hidden;rotatable=0;points=[[0,0.5],[1,0.5]];portConstraint=eastwest;" parent="yKTKf-4VHtg-_HPWuIa7-38" vertex="1">
          <mxGeometry y="128" width="310" height="50" as="geometry" />
        </mxCell>
        <mxCell id="LMPI0gjnYgJHYpbkVV06-22" value="" style="endArrow=block;html=1;strokeColor=#000000;endFill=0;exitX=0.469;exitY=1.192;exitDx=0;exitDy=0;exitPerimeter=0;" parent="1" edge="1">
          <mxGeometry width="50" height="50" relative="1" as="geometry">
            <mxPoint x="879.04" y="346.99199999999973" as="sourcePoint" />
            <mxPoint x="879" y="542" as="targetPoint" />
          </mxGeometry>
        </mxCell>
        <mxCell id="LMPI0gjnYgJHYpbkVV06-23" value="" style="endArrow=block;html=1;strokeColor=#000000;entryX=-0.008;entryY=1.104;entryDx=0;entryDy=0;entryPerimeter=0;endFill=0;" parent="1" target="yKTKf-4VHtg-_HPWuIa7-27" edge="1">
          <mxGeometry width="50" height="50" relative="1" as="geometry">
            <mxPoint x="-266" y="797" as="sourcePoint" />
            <mxPoint x="-216" y="747" as="targetPoint" />
          </mxGeometry>
        </mxCell>
        <mxCell id="MwtCyluApLj7gkgK4pBC-6" value="" style="edgeStyle=orthogonalEdgeStyle;rounded=0;orthogonalLoop=1;jettySize=auto;html=1;endArrow=block;endFill=0;" edge="1" parent="1" source="yKTKf-4VHtg-_HPWuIa7-17" target="MwtCyluApLj7gkgK4pBC-4">
          <mxGeometry relative="1" as="geometry">
            <Array as="points">
              <mxPoint x="1024" y="339" />
              <mxPoint x="1024" y="339" />
            </Array>
          </mxGeometry>
        </mxCell>
        <mxCell id="yKTKf-4VHtg-_HPWuIa7-17" value="&lt;&lt;enum&gt;&gt; Tipo" style="swimlane;fontStyle=1;align=center;verticalAlign=top;childLayout=stackLayout;horizontal=1;startSize=26;horizontalStack=0;resizeParent=1;resizeParentMax=0;resizeLast=0;collapsible=1;marginBottom=0;" parent="1" vertex="1">
          <mxGeometry x="804" y="322" width="160" height="34" as="geometry" />
        </mxCell>
        <mxCell id="yKTKf-4VHtg-_HPWuIa7-19" value="" style="line;strokeWidth=1;fillColor=none;align=left;verticalAlign=middle;spacingTop=-1;spacingLeft=3;spacingRight=3;rotatable=0;labelPosition=right;points=[];portConstraint=eastwest;strokeColor=inherit;" parent="yKTKf-4VHtg-_HPWuIa7-17" vertex="1">
          <mxGeometry y="26" width="160" height="8" as="geometry" />
        </mxCell>
        <mxCell id="MwtCyluApLj7gkgK4pBC-16" style="edgeStyle=orthogonalEdgeStyle;rounded=0;orthogonalLoop=1;jettySize=auto;html=1;exitX=0.5;exitY=0;exitDx=0;exitDy=0;entryX=0.5;entryY=1;entryDx=0;entryDy=0;entryPerimeter=0;endArrow=none;endFill=0;" edge="1" parent="1" source="S8cTtpgbVCuw56KvLq3J-2" target="LMPI0gjnYgJHYpbkVV06-47">
          <mxGeometry relative="1" as="geometry" />
        </mxCell>
        <mxCell id="S8cTtpgbVCuw56KvLq3J-2" value="Movimiento" style="swimlane;fontStyle=1;align=center;verticalAlign=top;childLayout=stackLayout;horizontal=1;startSize=26;horizontalStack=0;resizeParent=1;resizeParentMax=0;resizeLast=0;collapsible=1;marginBottom=0;whiteSpace=wrap;html=1;" parent="1" vertex="1">
          <mxGeometry x="804" y="532" width="400" height="200" as="geometry" />
        </mxCell>
        <mxCell id="S8cTtpgbVCuw56KvLq3J-3" value="-potencia: int&lt;br&gt;-tipoAtaque: String&lt;br style=&quot;border-color: var(--border-color); padding: 0px; margin: 0px;&quot;&gt;-tipoMovimiento: String&lt;br&gt;&lt;span style=&quot;&quot;&gt;-estado: Estado&lt;/span&gt;&lt;br style=&quot;border-color: var(--border-color); padding: 0px; margin: 0px;&quot;&gt;&lt;span style=&quot;&quot;&gt;-numTurnos: int&lt;br&gt;&lt;/span&gt;&lt;span style=&quot;&quot;&gt;-mejora&lt;br&gt;&lt;/span&gt;" style="text;strokeColor=none;fillColor=none;align=left;verticalAlign=top;spacingLeft=4;spacingRight=4;overflow=hidden;rotatable=0;points=[[0,0.5],[1,0.5]];portConstraint=eastwest;whiteSpace=wrap;html=1;" parent="S8cTtpgbVCuw56KvLq3J-2" vertex="1">
          <mxGeometry y="26" width="400" height="104" as="geometry" />
        </mxCell>
        <mxCell id="S8cTtpgbVCuw56KvLq3J-4" value="" style="line;strokeWidth=1;fillColor=none;align=left;verticalAlign=middle;spacingTop=-1;spacingLeft=3;spacingRight=3;rotatable=0;labelPosition=right;points=[];portConstraint=eastwest;strokeColor=inherit;" parent="S8cTtpgbVCuw56KvLq3J-2" vertex="1">
          <mxGeometry y="130" width="400" height="8" as="geometry" />
        </mxCell>
        <mxCell id="S8cTtpgbVCuw56KvLq3J-5" value="+calcularMovimiento(Movimiento, Pokemon, Pokemon)&lt;br style=&quot;border-color: var(--border-color); padding: 0px; margin: 0px;&quot;&gt;&lt;span style=&quot;&quot;&gt;-calcularConsumo(Movimiento, Pokemon):int&lt;br&gt;-calcularDanyo(Movimiento, Pokemon, Pokemon): int&lt;br&gt;&lt;/span&gt;" style="text;strokeColor=none;fillColor=none;align=left;verticalAlign=top;spacingLeft=4;spacingRight=4;overflow=hidden;rotatable=0;points=[[0,0.5],[1,0.5]];portConstraint=eastwest;whiteSpace=wrap;html=1;" parent="S8cTtpgbVCuw56KvLq3J-2" vertex="1">
          <mxGeometry y="138" width="400" height="62" as="geometry" />
        </mxCell>
        <mxCell id="MwtCyluApLj7gkgK4pBC-1" value="TablaTipos" style="swimlane;fontStyle=1;align=center;verticalAlign=top;childLayout=stackLayout;horizontal=1;startSize=26;horizontalStack=0;resizeParent=1;resizeParentMax=0;resizeLast=0;collapsible=1;marginBottom=0;whiteSpace=wrap;html=1;" vertex="1" parent="1">
          <mxGeometry x="1044" y="283" width="360" height="130" as="geometry" />
        </mxCell>
        <mxCell id="MwtCyluApLj7gkgK4pBC-3" value="" style="line;strokeWidth=1;fillColor=none;align=left;verticalAlign=middle;spacingTop=-1;spacingLeft=3;spacingRight=3;rotatable=0;labelPosition=right;points=[];portConstraint=eastwest;strokeColor=inherit;" vertex="1" parent="MwtCyluApLj7gkgK4pBC-1">
          <mxGeometry y="26" width="360" height="8" as="geometry" />
        </mxCell>
        <mxCell id="MwtCyluApLj7gkgK4pBC-4" value="-obtenerDebilidad(Pokemon):ArrayList&amp;lt;Tipo&amp;gt;&lt;br&gt;-obtenerFortaleza(Pokemon):ArrayList&amp;lt;Tipo&amp;gt;&lt;br&gt;-obtenerInmunidad(Pokemon):ArrayList&amp;lt;Tipo&amp;gt;&lt;br&gt;+calcularEfectividad(Movimiento, Pokemon, Pokemon):double" style="text;strokeColor=none;fillColor=none;align=left;verticalAlign=top;spacingLeft=4;spacingRight=4;overflow=hidden;rotatable=0;points=[[0,0.5],[1,0.5]];portConstraint=eastwest;whiteSpace=wrap;html=1;" vertex="1" parent="MwtCyluApLj7gkgK4pBC-1">
          <mxGeometry y="34" width="360" height="96" as="geometry" />
        </mxCell>
        <mxCell id="MwtCyluApLj7gkgK4pBC-14" style="edgeStyle=orthogonalEdgeStyle;rounded=0;orthogonalLoop=1;jettySize=auto;html=1;entryX=1.003;entryY=0.253;entryDx=0;entryDy=0;entryPerimeter=0;endArrow=block;endFill=0;" edge="1" parent="1" source="S8cTtpgbVCuw56KvLq3J-5" target="yKTKf-4VHtg-_HPWuIa7-22">
          <mxGeometry relative="1" as="geometry" />
        </mxCell>
        <mxCell id="MwtCyluApLj7gkgK4pBC-15" style="edgeStyle=orthogonalEdgeStyle;rounded=0;orthogonalLoop=1;jettySize=auto;html=1;entryX=1;entryY=0.11;entryDx=0;entryDy=0;entryPerimeter=0;endArrow=none;endFill=0;" edge="1" parent="1" source="LMPI0gjnYgJHYpbkVV06-47" target="yKTKf-4VHtg-_HPWuIa7-2">
          <mxGeometry relative="1" as="geometry" />
        </mxCell>
      </root>
    </mxGraphModel>
  </diagram>
</mxfile>
